<?xml version="1.0" encoding="utf-8"?>
<!-- Generator: Adobe Illustrator 26.5.0, SVG Export Plug-In . SVG Version: 6.00 Build 0)  -->
<svg version="1.1" id="Calque_1" xmlns="http://www.w3.org/2000/svg" xmlns:xlink="http://www.w3.org/1999/xlink" x="0px" y="0px"
	 viewBox="0 0 708.7 708.7" style="enable-background:new 0 0 708.7 708.7;" xml:space="preserve">
<style type="text/css">
	.st0{fill:#3AA2DB;}
</style>
<g id="Iconly_Bold_Calendar" transform="translate(168.642 0)">
	<g id="Calendar" transform="translate(0)">
		<path id="Tracé_3" class="st0" d="M302.1,1.3c14.7-0.2,26.8,11.6,27,26.3c0,0.3,0,0.6,0,0.9l0,0v26.5
			c91.7,2.2,164.2,78.3,162,170c0,2-0.1,3.9-0.2,5.9l0,0l0.4,298c0.1,111-69.6,179.3-181.4,179.5l0,0l-273.1,0.4
			c-111.1,0.2-181.7-69.8-181.8-181.1l0,0l-0.4-294.5C-152.1,141.8-83.4,62.3,8,55.7c2-0.1,4-0.3,5.9-0.3l0,0V28.9
			C12.9,14,24,1.1,38.9,0.1s27.7,10.1,28.8,25c0.1,1.3,0.1,2.5,0,3.8l0,0v24.8l207.4-0.3V28.5c-0.5-14.6,11-26.8,25.6-27.3
			C301.2,1.3,301.6,1.3,302.1,1.3z M316.3,503.3H316c-16.2,0.5-29,13.9-28.6,30.1c0.4,16.2,13.9,29,30.1,28.5
			c16.2-0.4,29-13.9,28.5-30.1C345.6,515.8,332.4,503.1,316.3,503.3z M28.6,503.3C12.3,504-0.3,517.5-0.2,533.7
			c0.9,15.9,14.5,28.1,30.4,27.2s28.1-14.5,27.2-30.4c-0.8-15.4-13.6-27.4-29-27.3L28.6,503.3z M172.4,503.1
			c-16.1,0.9-28.7,14.3-28.6,30.4c0.9,15.9,14.5,28.1,30.4,27.2s28.1-14.5,27.2-30.4C200.6,515,187.8,503,172.4,503.1z M28.3,376
			c-16.1,0.8-28.8,14.3-28.6,30.4c0.9,15.9,14.5,28.1,30.4,27.2c15.9-0.9,28.1-14.5,27.2-30.4C56.4,387.9,43.6,375.9,28.3,376z
			 M172.2,374.8c-16.2,0.8-28.8,14.3-28.6,30.4c0.9,15.9,14.5,28.1,30.4,27.2c15.9-0.9,28.1-14.5,27.2-30.4
			C200.3,386.7,187.6,374.7,172.2,374.8z M316.1,375c-16.1,0.4-28.8,13.6-28.6,29.7l0,0v0.4c0.3,15.9,13.4,28.5,29.3,28.3
			c0.1,0,0.3,0,0.4,0c16.1-0.3,28.9-13.6,28.6-29.7C345.4,387.4,332.1,374.6,316.1,375L316.1,375z M275.1,107.7L67.7,108v28.6
			c1.1,14.9-10.1,27.7-25,28.8s-27.7-10.1-28.8-25c-0.1-1.3-0.1-2.5,0-3.8l0,0v-27.2C-54.2,116.3-91.9,156.3-91.8,233l0,0v10.9
			l528.8-0.7v-12.3c-1.4-76-39.5-115.9-107.9-121.8l0,0v27.2c1.1,14.9-10.1,27.7-25,28.8c-14.9,1.1-27.7-10.1-28.8-25
			c-0.1-1.3-0.1-2.5,0-3.8l0,0L275.1,107.7z"/>
	</g>
</g>
</svg>
