<?xml version="1.0" encoding="utf-8"?>
<!-- Generator: Adobe Illustrator 26.5.0, SVG Export Plug-In . SVG Version: 6.00 Build 0)  -->
<svg version="1.1" id="Calque_1" xmlns="http://www.w3.org/2000/svg" xmlns:xlink="http://www.w3.org/1999/xlink" x="0px" y="0px"
	 viewBox="0 0 708.7 708.7" style="enable-background:new 0 0 708.7 708.7;" xml:space="preserve">
<style type="text/css">
	.st0{fill:#A6D5F3;}
</style>
<g id="Iconly_Bold_Chat" transform="translate(83.85 0)">
	<g id="Chat" transform="translate(0)">
		<path id="Tracé_2" class="st0" d="M271.3,0C467,0.1,625.5,158.8,625.4,354.5c-0.1,195.7-158.8,354.2-354.5,354.1
			c-61.2,0-121.4-15.9-174.6-46.1c-14.6-12.4-34.2-17.1-52.8-12.8l0,0L-28.1,671c-11.4,4.5-24.2-1.1-28.7-12.5
			c-1.9-4.9-2-10.2-0.4-15.2l0,0l23.7-79.5c4-10.4,3.1-22.1-2.5-31.8C-66.3,477.9-82.7,417-83.7,354.9C-83.9,159,74.7,0.2,270.5,0
			C270.8,0,271,0,271.3,0z M433.4,309.8c-25.1,0-45.5,20.3-45.5,45.3s20.3,45.5,45.3,45.5s45.5-20.3,45.5-45.3c0,0,0-0.1,0-0.1
			c0.1-25-20.1-45.3-45-45.4c-0.1,0-0.3,0-0.4,0H433.4z M270,309.8c-25-0.1-45.3,20.1-45.3,45c0,0,0,0,0,0.1
			c-0.1,25.1,20.1,45.4,45.2,45.5s45.4-20.1,45.5-45.2c0.1-25-20.1-45.3-45-45.4c-0.1,0-0.3,0-0.4,0H270z M106.6,309.8
			c-25-0.1-45.3,20.1-45.3,45.1c0,0.1,0,0.2,0,0.3c0,25.1,20.3,45.4,45.4,45.4s45.4-20.3,45.4-45.4c0.1-25-20.1-45.3-45-45.4
			c-0.1,0-0.3,0-0.4,0H106.6z"/>
	</g>
</g>
</svg>
