<?xml version="1.0" encoding="utf-8"?>
<!-- Generator: Adobe Illustrator 26.5.0, SVG Export Plug-In . SVG Version: 6.00 Build 0)  -->
<svg version="1.1" id="Calque_1" xmlns="http://www.w3.org/2000/svg" xmlns:xlink="http://www.w3.org/1999/xlink" x="0px" y="0px"
	 viewBox="0 0 708.7 708.7" style="enable-background:new 0 0 708.7 708.7;" xml:space="preserve">
<style type="text/css">
	.st0{fill:#3DA3DC;}
</style>
<g id="Iconly_Bold_Home">
	<g id="Home">
		<path id="Tracé_1" class="st0" d="M252.7,665.2V556.9c0.1-27.8,22.7-50.2,50.5-50.1c0,0,0,0,0,0H405c13.4,0,26.2,5.3,35.7,14.7
			c9.4,9.4,14.8,22.1,14.8,35.4v108.3c-0.1,11.5,4.5,22.6,12.6,30.7c8.2,8.2,19.3,12.8,30.8,12.7h69.5c32.5,0.1,63.6-12.6,86.7-35.4
			c23-22.7,35.9-53.6,35.9-85.9V278.8c0-26.1-11.6-50.9-31.7-67.5L422.8,23.9c-41.2-32.9-99.9-31.8-139.9,2.5l-231,184.9
			c-21,16.1-33.6,40.9-34.3,67.4v308.3c0.3,67.4,55.1,121.8,122.5,121.5H208c24,0.1,43.6-19.2,43.8-43.2L252.7,665.2z"/>
	</g>
</g>
</svg>
