<?xml version="1.0" encoding="utf-8"?>
<!-- Generator: Adobe Illustrator 26.5.0, SVG Export Plug-In . SVG Version: 6.00 Build 0)  -->
<svg version="1.1" id="uuid-b88a8cc9-6bd6-427e-b4e4-c4b17dd9a1f0"
	 xmlns="http://www.w3.org/2000/svg" xmlns:xlink="http://www.w3.org/1999/xlink" x="0px" y="0px" viewBox="0 0 708.7 708.7"
	 style="enable-background:new 0 0 708.7 708.7;" xml:space="preserve">
<style type="text/css">
	.st0{fill:#ADADAD;}
	.st1{fill:#626261;}
</style>
<circle class="st0" cx="354.3" cy="354.3" r="354.3"/>
<path class="st1" d="M135.5,313.7c0,15.2,12.3,27.5,27.5,27.5h8.7c15.2,0,27.5-12.3,27.5-27.5s-12.3-27.5-27.5-27.5H163
	C147.8,286.1,135.5,298.5,135.5,313.7L135.5,313.7z"/>
<path class="st1" d="M509.4,313.7c0,15.2,12.3,27.5,27.5,27.5h8.7c15.2,0,27.5-12.3,27.5-27.5s-12.3-27.5-27.5-27.5h-8.7
	C521.7,286.1,509.4,298.5,509.4,313.7L509.4,313.7z"/>
<path class="st1" d="M219.6,397.6c0,0,48.2,112.2,134.7,112.3c100.4,0.2,134.7-112.3,134.7-112.3H219.6z"/>
</svg>
