<?xml version="1.0" encoding="UTF-8"?><svg id="uuid-3c46211c-5677-4a0e-87e0-25113539d865" xmlns="http://www.w3.org/2000/svg" viewBox="0 0 708.66 708.66"><defs><style>.uuid-476ccc0d-9c86-4082-b46f-8383593a6f1a{fill:#e7364e;}.uuid-67fd39dc-17b3-4b60-a2b7-6dcc3fb1610c{fill:#701a25;}</style></defs><circle class="uuid-476ccc0d-9c86-4082-b46f-8383593a6f1a" cx="354.33" cy="354.33" r="354.33"/><path class="uuid-67fd39dc-17b3-4b60-a2b7-6dcc3fb1610c" d="M135.46,313.68c0,15.21,12.33,27.54,27.54,27.54h8.74c15.21,0,27.54-12.33,27.54-27.54s-12.33-27.54-27.54-27.54h-8.74c-15.21,0-27.54,12.33-27.54,27.54Z"/><path class="uuid-67fd39dc-17b3-4b60-a2b7-6dcc3fb1610c" d="M138.92,253.05c-5.05,9.16-4.5,19.15,1.22,22.3l61.67,33.99c5.72,3.16,14.46-1.71,19.51-10.87,5.05-9.16,4.5-19.15-1.22-22.3l-61.67-33.99c-5.72-3.15-14.46,1.71-19.51,10.87Z"/><path class="uuid-67fd39dc-17b3-4b60-a2b7-6dcc3fb1610c" d="M564.93,253.05c5.05,9.16,4.5,19.15-1.22,22.3l-61.67,33.99c-5.72,3.16-14.46-1.71-19.51-10.87-5.05-9.16-4.5-19.15,1.22-22.3l61.67-33.99c5.72-3.15,14.46,1.71,19.51,10.87Z"/><path class="uuid-67fd39dc-17b3-4b60-a2b7-6dcc3fb1610c" d="M509.38,313.68c0,15.21,12.33,27.54,27.54,27.54h8.74c15.21,0,27.54-12.33,27.54-27.54s-12.33-27.54-27.54-27.54h-8.74c-15.21,0-27.54,12.33-27.54,27.54Z"/><path class="uuid-67fd39dc-17b3-4b60-a2b7-6dcc3fb1610c" d="M459.43,491.25c-6.88,0-13.4-4.08-16.18-10.83-.9-2.12-23.75-54.08-88.53-54.08-56.38,.08-89.67,55.67-90,56.23-4.87,8.31-15.57,11.14-23.9,6.27-8.32-4.85-11.17-15.5-6.34-23.84,1.74-3,43.44-73.52,120.01-73.63,88.92,0,119.82,72.64,121.09,75.74,3.67,8.93-.59,19.15-9.52,22.82-2.17,.9-4.43,1.32-6.65,1.32Z"/></svg>