<?xml version="1.0" encoding="utf-8"?>
<!-- Generator: Adobe Illustrator 26.5.0, SVG Export Plug-In . SVG Version: 6.00 Build 0)  -->
<svg version="1.1" id="uuid-0b062425-91e0-4993-b700-3d39b4fa3b30"
	 xmlns="http://www.w3.org/2000/svg" xmlns:xlink="http://www.w3.org/1999/xlink" x="0px" y="0px" viewBox="0 0 708.7 708.7"
	 style="enable-background:new 0 0 708.7 708.7;" xml:space="preserve">
<style type="text/css">
	.st0{fill:#DAD9D9;}
	.st1{fill:#686867;}
</style>
<circle class="st0" cx="354.3" cy="354.3" r="354.3"/>
<path class="st1" d="M135.5,311.9c0,15.2,12.3,27.5,27.5,27.5h8.7c15.2,0,27.5-12.3,27.5-27.5s-12.3-27.5-27.5-27.5H163
	C147.8,284.4,135.5,296.7,135.5,311.9L135.5,311.9z"/>
<path class="st1" d="M509.4,311.9c0,15.2,12.3,27.5,27.5,27.5h8.7c15.2,0,27.5-12.3,27.5-27.5s-12.3-27.5-27.5-27.5h-8.7
	C521.7,284.4,509.4,296.7,509.4,311.9L509.4,311.9z"/>
<path class="st1" d="M401.6,476.4c-2,0-4.1-0.4-6.1-1.1l-128.6-47.8c-9-3.4-13.6-13.4-10.3-22.5c3.4-9.1,13.4-13.6,22.5-10.3
	l128.6,47.8c9,3.4,13.6,13.4,10.3,22.5C415.4,472,408.7,476.4,401.6,476.4z"/>
</svg>
