<?xml version="1.0" encoding="utf-8"?>
<!-- Generator: Adobe Illustrator 26.5.0, SVG Export Plug-In . SVG Version: 6.00 Build 0)  -->
<svg version="1.1" id="uuid-3c46211c-5677-4a0e-87e0-25113539d865"
	 xmlns="http://www.w3.org/2000/svg" xmlns:xlink="http://www.w3.org/1999/xlink" x="0px" y="0px" viewBox="0 0 708.7 708.7"
	 style="enable-background:new 0 0 708.7 708.7;" xml:space="preserve">
<style type="text/css">
	.st0{fill:#8E8E8D;}
	.st1{fill:#595958;}
</style>
<circle class="st0" cx="354.3" cy="354.3" r="354.3"/>
<path class="st1" d="M135.5,313.7c0,15.2,12.3,27.5,27.5,27.5h8.7c15.2,0,27.5-12.3,27.5-27.5s-12.3-27.5-27.5-27.5H163
	C147.8,286.1,135.5,298.5,135.5,313.7L135.5,313.7z"/>
<path class="st1" d="M138.9,253c-5.1,9.2-4.5,19.1,1.2,22.3l61.7,34c5.7,3.2,14.5-1.7,19.5-10.9c5.1-9.2,4.5-19.1-1.2-22.3l-61.7-34
	C152.7,239,144,243.9,138.9,253z"/>
<path class="st1" d="M564.9,253c5,9.2,4.5,19.1-1.2,22.3l-61.7,34c-5.7,3.2-14.5-1.7-19.5-10.9c-5-9.2-4.5-19.1,1.2-22.3l61.7-34
	C551.1,239,559.9,243.9,564.9,253L564.9,253z"/>
<path class="st1" d="M509.4,313.7c0,15.2,12.3,27.5,27.5,27.5h8.7c15.2,0,27.5-12.3,27.5-27.5s-12.3-27.5-27.5-27.5h-8.7
	C521.7,286.1,509.4,298.5,509.4,313.7L509.4,313.7z"/>
<path class="st1" d="M459.4,491.2c-6.9,0-13.4-4.1-16.2-10.8c-0.9-2.1-23.8-54.1-88.5-54.1c-56.4,0.1-89.7,55.7-90,56.2
	c-4.9,8.3-15.6,11.1-23.9,6.3c-8.3-4.9-11.2-15.5-6.3-23.8c1.7-3,43.4-73.5,120-73.6c88.9,0,119.8,72.6,121.1,75.7
	c3.7,8.9-0.6,19.1-9.5,22.8C463.9,490.8,461.6,491.2,459.4,491.2L459.4,491.2z"/>
</svg>
