<?xml version="1.0" encoding="UTF-8"?><svg id="uuid-0b062425-91e0-4993-b700-3d39b4fa3b30" xmlns="http://www.w3.org/2000/svg" viewBox="0 0 708.66 708.66"><defs><style>.uuid-88810143-d788-4f7a-b976-70c88e154260{fill:#ffce2f;}.uuid-2945203d-a6d5-4167-8112-ac0474ee63c0{fill:#594314;}</style></defs><circle class="uuid-88810143-d788-4f7a-b976-70c88e154260" cx="354.33" cy="354.33" r="354.33"/><path class="uuid-2945203d-a6d5-4167-8112-ac0474ee63c0" d="M135.46,311.93c0,15.21,12.33,27.54,27.54,27.54h8.74c15.21,0,27.54-12.33,27.54-27.54s-12.33-27.54-27.54-27.54h-8.74c-15.21,0-27.54,12.33-27.54,27.54Z"/><path class="uuid-2945203d-a6d5-4167-8112-ac0474ee63c0" d="M509.38,311.93c0,15.21,12.33,27.54,27.54,27.54h8.74c15.21,0,27.54-12.33,27.54-27.54s-12.33-27.54-27.54-27.54h-8.74c-15.21,0-27.54,12.33-27.54,27.54Z"/><path class="uuid-2945203d-a6d5-4167-8112-ac0474ee63c0" d="M401.63,476.39c-2.03,0-4.08-.35-6.1-1.1l-128.59-47.84c-9.05-3.37-13.65-13.43-10.29-22.48,3.36-9.06,13.41-13.65,22.48-10.29l128.59,47.84c9.05,3.37,13.65,13.43,10.29,22.48-2.62,7.04-9.29,11.39-16.38,11.39Z"/></svg>